<?xml version="1.0" encoding="UTF-8" standalone="no"?>
<!-- Created with Inkscape (http://www.inkscape.org/) -->
<svg
   xmlns:dc="http://purl.org/dc/elements/1.1/"
   xmlns:cc="http://creativecommons.org/ns#"
   xmlns:rdf="http://www.w3.org/1999/02/22-rdf-syntax-ns#"
   xmlns:svg="http://www.w3.org/2000/svg"
   xmlns="http://www.w3.org/2000/svg"
   xmlns:sodipodi="http://sodipodi.sourceforge.net/DTD/sodipodi-0.dtd"
   xmlns:inkscape="http://www.inkscape.org/namespaces/inkscape"
   width="587.90875"
   height="492.95444"
   id="svg2"
   sodipodi:version="0.32"
   inkscape:version="0.46"
   sodipodi:docname="Dynamo_-_commutating_plane_idealized.svg"
   inkscape:output_extension="org.inkscape.output.svg.inkscape"
   version="1.0">
  <defs
     id="defs4">
    <inkscape:perspective
       sodipodi:type="inkscape:persp3d"
       inkscape:vp_x="0 : 246.47722 : 1"
       inkscape:vp_y="0 : 1000 : 0"
       inkscape:vp_z="587.90875 : 246.47722 : 1"
       inkscape:persp3d-origin="293.95438 : 164.31815 : 1"
       id="perspective2548" />
  </defs>
  <sodipodi:namedview
     id="base"
     pagecolor="#ffffff"
     bordercolor="#666666"
     borderopacity="1.0"
     gridtolerance="10000"
     guidetolerance="10"
     objecttolerance="10"
     inkscape:pageopacity="0.0"
     inkscape:pageshadow="2"
     inkscape:zoom="0.7"
     inkscape:cx="458.67936"
     inkscape:cy="139.85476"
     inkscape:document-units="px"
     inkscape:current-layer="layer5"
     showgrid="false"
     inkscape:window-width="1280"
     inkscape:window-height="964"
     inkscape:window-x="0"
     inkscape:window-y="20" />
  <metadata
     id="metadata7">
    <rdf:RDF>
      <cc:Work
         rdf:about="">
        <dc:format>image/svg+xml</dc:format>
        <dc:type
           rdf:resource="http://purl.org/dc/dcmitype/StillImage" />
      </cc:Work>
    </rdf:RDF>
  </metadata>
  <g
     inkscape:label="Layer 1"
     inkscape:groupmode="layer"
     id="layer1"
     sodipodi:insensitive="true"
     transform="translate(-46.972107,-17.653942)">
    <rect
       style="opacity:1;fill:#ffffff;fill-opacity:1;stroke:none;stroke-width:2;stroke-miterlimit:4;stroke-dasharray:none;stroke-opacity:1"
       id="rect18668"
       width="587.90875"
       height="492.95444"
       x="46.972107"
       y="17.653942" />
  </g>
  <g
     inkscape:groupmode="layer"
     id="layer3"
     inkscape:label="3"
     style="opacity:1"
     transform="translate(-46.972107,-17.653942)"
     sodipodi:insensitive="true" />
  <g
     inkscape:groupmode="layer"
     id="layer2"
     inkscape:label="2"
     sodipodi:insensitive="true"
     transform="translate(-46.972107,-17.653942)" />
  <g
     inkscape:groupmode="layer"
     id="layer4"
     inkscape:label="4"
     transform="translate(-46.972107,-17.653942)"
     sodipodi:insensitive="true">
    <path
       id="path9562"
       style="fill:none;fill-rule:evenodd;stroke:#3c3c3c;stroke-width:1px;stroke-linecap:butt;stroke-linejoin:miter;stroke-opacity:1"
       d="M 69.700526,178.07515 L 214.15234,178.07515 C 230.1507,176.58134 239.96803,173.75669 259.10413,157.36703 C 278.24023,140.97737 311.89874,126.66045 341.93664,128.57768 C 371.97453,130.49491 413.65618,145.33141 433.86052,164.94317 C 454.06486,184.55493 451.5715,181.08401 463.66002,181.61069 L 613.66767,181.61064 M 69.700526,196.19038 L 202.53559,197.77313 C 218.39643,197.22262 224.43535,200.27387 245.97214,181.61069 C 267.50893,162.94751 306.26874,140.18772 341.93664,141.20459 C 377.60454,142.22146 416.0161,163.25091 434.36559,182.11576 C 452.71508,200.98061 461.322,199.86677 476.792,198.78328 L 613.66767,199.01878 M 69.700526,214.30561 L 196.97975,216.96603 C 217.59075,215.78105 229.58825,216.44281 249.0026,195.75282 C 268.41695,175.06283 301.57999,149.80166 341.93664,151.30611 C 382.29329,152.81056 414.11183,173.6736 431.84021,195.24775 C 449.56859,216.8219 463.07716,218.35234 480.32754,218.48126 L 613.66767,216.42692 M 69.700526,232.42085 L 199.50513,235.14877 C 221.561,235.14877 239.24122,228.18208 249.50768,210.40004 C 264.05873,185.19689 301.41178,158.79832 341.93664,159.38733 C 382.4615,159.97634 418.92543,186.68735 434.36559,213.43049 C 442.28114,227.14062 461.134,236.33616 482.34784,236.664 L 613.66767,233.83506 M 69.700526,250.53608 L 206.07112,251.31121 C 226.82541,250.58195 244.07455,244.78467 251.52798,228.58278 C 266.24699,196.58734 304.58222,169.47333 341.93664,169.99393 C 379.29106,170.51453 421.46699,199.82908 430.83006,228.07771 C 436.98169,246.63734 454.65007,253.29909 470.73109,251.31121 L 613.66767,251.24321 M 69.700526,268.65133 L 613.66767,268.65133 M 69.700526,359.2275 L 214.15234,359.22751 C 230.1507,360.72132 239.96803,363.54597 259.10413,379.93563 C 278.24023,396.32529 311.89874,410.64221 341.93664,408.72498 C 371.97453,406.80775 413.65618,391.97125 433.86052,372.35949 C 454.06486,352.74773 451.5715,356.21865 463.66002,355.69197 L 613.66767,355.69197 M 69.700526,341.11227 L 202.53559,339.52953 C 218.39643,340.08004 224.43535,337.02879 245.97214,355.69197 C 267.50893,374.35515 306.26874,397.11494 341.93664,396.09807 C 377.60454,395.0812 416.0161,374.05175 434.36559,355.1869 C 452.71508,336.32205 461.322,337.43589 476.792,338.51938 L 613.66767,338.28384 M 69.700526,322.99704 L 196.97975,320.33663 C 217.59075,321.52161 229.58825,320.85985 249.0026,341.54984 C 268.41695,362.23983 301.57999,387.501 341.93664,385.99655 C 382.29329,384.4921 414.11183,363.62906 431.84021,342.05491 C 449.56859,320.48076 463.07716,318.95032 480.32754,318.8214 L 613.66767,320.87571 M 69.700526,304.8818 L 199.50513,302.15389 C 221.561,302.15389 239.24122,309.12058 249.50768,326.90262 C 264.05873,352.10577 301.41178,378.50434 341.93664,377.91533 C 382.4615,377.32632 418.92543,350.61531 434.36559,323.87217 C 442.28114,310.16204 461.134,300.9665 482.34784,300.63866 L 613.66767,303.46759 M 69.700526,286.76657 L 206.07112,285.99145 C 226.82541,286.72071 244.07455,292.51799 251.52798,308.71988 C 266.24699,340.71532 304.58222,367.82933 341.93664,367.30873 C 379.29106,366.78813 421.46699,337.47358 430.83006,309.22495 C 436.98169,290.66532 454.65007,284.00357 470.73109,285.99145 L 613.66767,286.05946"
       sodipodi:nodetypes="ccsssccccsssccccsssccccsssccccsssccccccsssccccsssccccsssccccsssccccssscc" />
  </g>
  <g
     inkscape:groupmode="layer"
     id="layer5"
     inkscape:label="5"
     transform="translate(-46.972107,-17.653942)">
    <g
       id="g3228">
      <path
         d="M 485,268.07648 A 145,145 0 1 1 195,268.07648 A 145,145 0 1 1 485,268.07648 z"
         sodipodi:ry="145"
         sodipodi:rx="145"
         sodipodi:cy="268.07648"
         sodipodi:cx="340"
         id="path3224"
         style="opacity:1;fill:none;fill-opacity:1;stroke:#000000;stroke-width:2;stroke-miterlimit:4;stroke-dasharray:none;stroke-opacity:1"
         sodipodi:type="arc" />
      <path
         transform="translate(-0.7142944,0)"
         d="M 425.00001,268.07648 A 84.285713,84.285713 0 1 1 256.42858,268.07648 A 84.285713,84.285713 0 1 1 425.00001,268.07648 z"
         sodipodi:ry="84.285713"
         sodipodi:rx="84.285713"
         sodipodi:cy="268.07648"
         sodipodi:cx="340.71429"
         id="path3226"
         style="opacity:1;fill:none;fill-opacity:1;stroke:#000000;stroke-width:2;stroke-miterlimit:4;stroke-dasharray:none;stroke-opacity:1"
         sodipodi:type="arc" />
    </g>
    <path
       style="fill:none;fill-rule:evenodd;stroke:#000000;stroke-width:2;stroke-linecap:butt;stroke-linejoin:miter;stroke-miterlimit:4;stroke-dasharray:none;stroke-opacity:1"
       d="M 342.14286,36.647896 L 342.14286,476.6479"
       id="path3232" />
    <g
       id="g8396">
      <g
         id="g8374">
        <path
           id="path6180"
           d="M 374.4375,90.46875 L 374.15625,91.40625 C 438.35588,109.89755 488.52491,144.78007 510.96875,212.53125 L 511.90625,212.21875 C 489.3546,144.14212 438.82569,109.01435 374.4375,90.46875 z"
           style="fill:#000000;fill-opacity:1;fill-rule:evenodd;stroke:none;stroke-width:1px;stroke-linecap:butt;stroke-linejoin:miter;stroke-opacity:1" />
        <path
           id="path8380"
           d="M 508.28394,202.86948 L 503.229,200.33026 L 511.42857,212.36218 L 510.82316,197.81455 L 508.28394,202.86948 z"
           style="fill-rule:evenodd;stroke:#000000;stroke-width:0.8pt;marker-start:none" />
        <g
           id="g8382"
           transform="matrix(1.1531213,0.3321313,-0.3321313,1.1531213,374.28571,90.93361)">
          <path
             id="path8384"
             d="M -3.8048674,-3.9585227 L 0.54352094,0"
             style="fill:none;fill-rule:evenodd;stroke:#000000;stroke-width:0.80000001;stroke-linecap:round;marker-start:none;marker-end:none" />
          <path
             id="path8386"
             d="M -1.2866832,-3.9585227 L 3.0617053,0"
             style="fill:none;fill-rule:evenodd;stroke:#000000;stroke-width:0.80000001;stroke-linecap:round;marker-start:none;marker-end:none" />
          <path
             id="path8388"
             d="M 1.3053582,-3.9585227 L 5.6537466,0"
             style="fill:none;fill-rule:evenodd;stroke:#000000;stroke-width:0.80000001;stroke-linecap:round;marker-start:none;marker-end:none" />
          <path
             id="path8390"
             d="M -3.8048674,4.1775838 L 0.54352094,0.21974226"
             style="fill:none;fill-rule:evenodd;stroke:#000000;stroke-width:0.80000001;stroke-linecap:round;marker-start:none;marker-end:none" />
          <path
             id="path8392"
             d="M -1.2866832,4.1775838 L 3.0617053,0.21974226"
             style="fill:none;fill-rule:evenodd;stroke:#000000;stroke-width:0.80000001;stroke-linecap:round;marker-start:none;marker-end:none" />
          <path
             id="path8394"
             d="M 1.3053582,4.1775838 L 5.6537466,0.21974226"
             style="fill:none;fill-rule:evenodd;stroke:#000000;stroke-width:0.80000001;stroke-linecap:round;marker-start:none;marker-end:none" />
        </g>
      </g>
    </g>
    <text
       xml:space="preserve"
       style="font-size:20;font-style:normal;font-weight:normal;text-align:start;text-anchor:start;fill:#000000;fill-opacity:1;stroke:none;stroke-width:1px;stroke-linecap:butt;stroke-linejoin:miter;stroke-opacity:1;font-family:Bitstream Vera Sans"
       x="371.42856"
       y="55.219326"
       id="text8370"><tspan
         sodipodi:role="line"
         id="tspan8372"
         x="371.42856"
         y="55.219326">Normal Neutral Plane</tspan></text>
    <g
       id="g8969">
      <g
         id="g8961">
        <path
           id="path8408"
           d="M 342.84375,49 L 342.84375,50 L 369.28125,50 L 369.28125,49 L 342.84375,49 z"
           style="fill:#000000;fill-opacity:1;fill-rule:evenodd;stroke:none;stroke-width:1px;stroke-linecap:butt;stroke-linejoin:miter;stroke-opacity:1" />
        <path
           id="path8967"
           d="M 352.85714,49.505039 L 356.85714,45.505039 L 342.85714,49.505039 L 356.85714,53.505039 L 352.85714,49.505039 z"
           style="fill-rule:evenodd;stroke:#000000;stroke-width:0.8pt;marker-start:none" />
      </g>
    </g>
    <text
       xml:space="preserve"
       style="font-size:20px;font-style:normal;font-weight:normal;text-align:start;text-anchor:start;fill:#000000;fill-opacity:1;stroke:none;stroke-width:1px;stroke-linecap:butt;stroke-linejoin:miter;stroke-opacity:1;font-family:Bitstream Vera Sans"
       x="428.57144"
       y="414.25995"
       id="text8974"><tspan
         sodipodi:role="line"
         id="tspan8976"
         x="428.57144"
         y="414.25995">Normal Plane of</tspan><tspan
         sodipodi:role="line"
         x="428.57144"
         y="439.25995"
         id="tspan8980">Maximum Induction</tspan></text>
    <g
       id="g2662">
      <path
         style="fill:#000000;fill-opacity:1;fill-rule:evenodd;stroke:none;stroke-width:1px;stroke-linecap:butt;stroke-linejoin:miter;stroke-opacity:1"
         d="M 520.21875,270.125 L 495.9375,395.125 L 496.90625,395.3125 L 521.21875,270.3125 L 520.21875,270.125 z"
         id="path8984" />
      <path
         style="fill-rule:evenodd;stroke:#000000;stroke-width:0.8pt;marker-start:none"
         d="M 518.80709,280.03577 L 521.97079,284.72522 L 520.71429,270.21932 L 514.11764,283.19947 L 518.80709,280.03577 z"
         id="path2668" />
    </g>
    <text
       xml:space="preserve"
       style="font-size:40px;font-style:normal;font-weight:normal;text-align:start;text-anchor:start;fill:#000000;fill-opacity:1;stroke:none;stroke-width:1px;stroke-linecap:butt;stroke-linejoin:miter;stroke-opacity:1;font-family:Bitstream Vera Sans"
       x="77.85714"
       y="281.50214"
       id="text9537"><tspan
         sodipodi:role="line"
         id="tspan9539"
         x="77.85714"
         y="281.50214">S</tspan></text>
    <text
       xml:space="preserve"
       style="font-size:40px;font-style:normal;font-weight:normal;text-align:start;text-anchor:start;fill:#000000;fill-opacity:1;stroke:none;stroke-width:1px;stroke-linecap:butt;stroke-linejoin:miter;stroke-opacity:1;font-family:Bitstream Vera Sans"
       x="561.38538"
       y="281.52167"
       id="text9541"><tspan
         sodipodi:role="line"
         id="tspan9543"
         x="561.38538"
         y="281.52167">N</tspan></text>
    <text
       xml:space="preserve"
       style="font-size:18px;font-style:normal;font-weight:normal;text-align:start;text-anchor:start;fill:#000000;fill-opacity:1;stroke:none;stroke-width:1px;stroke-linecap:butt;stroke-linejoin:miter;stroke-opacity:1;font-family:Bitstream Vera Sans"
       x="165.71429"
       y="268.72516"
       id="text9545"><tspan
         sodipodi:role="line"
         id="tspan9547"
         x="165.71429"
         y="268.72516">G</tspan></text>
    <text
       xml:space="preserve"
       style="font-size:18px;font-style:normal;font-weight:normal;text-align:start;text-anchor:start;fill:#000000;fill-opacity:1;stroke:none;stroke-width:1px;stroke-linecap:butt;stroke-linejoin:miter;stroke-opacity:1;font-family:Bitstream Vera Sans"
       x="491.83023"
       y="268.73395"
       id="text9549"><tspan
         sodipodi:role="line"
         id="tspan9551"
         x="491.83023"
         y="268.73395">H</tspan></text>
    <text
       xml:space="preserve"
       style="font-size:22px;font-style:normal;font-weight:normal;text-align:start;text-anchor:start;fill:#000000;fill-opacity:1;stroke:none;stroke-width:1px;stroke-linecap:butt;stroke-linejoin:miter;stroke-opacity:1;font-family:Bitstream Vera Sans"
       x="308.57141"
       y="111.6479"
       id="text9553"><tspan
         sodipodi:role="line"
         id="tspan9555"
         x="308.57141"
         y="111.6479">E</tspan></text>
    <text
       xml:space="preserve"
       style="font-size:22px;font-style:normal;font-weight:normal;text-align:start;text-anchor:start;fill:#000000;fill-opacity:1;stroke:none;stroke-width:1px;stroke-linecap:butt;stroke-linejoin:miter;stroke-opacity:1;font-family:Bitstream Vera Sans"
       x="358.38812"
       y="442.52408"
       id="text9557"><tspan
         sodipodi:role="line"
         id="tspan9559"
         x="358.38812"
         y="442.52408">F</tspan></text>
    <path
       style="fill:none;fill-rule:evenodd;stroke:#000000;stroke-width:2;stroke-linecap:butt;stroke-linejoin:miter;stroke-miterlimit:4;stroke-dasharray:none;stroke-opacity:1"
       d="M 194.95944,268.48381 L 484.87322,268.48381"
       id="path9603" />
    <g
       id="g2614">
      <path
         style="fill:#000000;fill-opacity:1;fill-rule:evenodd;stroke:none;stroke-width:2;stroke-linecap:butt;stroke-linejoin:miter;stroke-miterlimit:4;stroke-dasharray:none;stroke-opacity:1"
         d="M 341.15625,123.0625 L 341.15625,159.3125 L 341.15625,183.4375 L 343.15625,183.4375 L 343.15625,159.3125 L 343.15625,123.0625 L 341.15625,123.0625 z"
         id="path9606" />
      <path
         style="fill-rule:evenodd;stroke:#000000;stroke-width:0.8pt;marker-start:none"
         d="M 342.14286,151.32647 L 338.14286,147.32647 L 342.14286,161.32647 L 346.14286,147.32647 L 342.14286,151.32647 z"
         id="path2620" />
    </g>
    <g
       id="g2622">
      <path
         style="fill:#000000;fill-opacity:1;fill-rule:evenodd;stroke:none;stroke-width:2;stroke-linecap:butt;stroke-linejoin:miter;stroke-miterlimit:4;stroke-dasharray:none;stroke-opacity:1"
         d="M 285.5625,133.34375 L 283.71875,134.09375 L 297.4375,167.65625 L 306.5625,189.96875 L 308.4375,189.1875 L 299.28125,166.875 L 285.5625,133.34375 z"
         id="path14573" />
      <path
         style="fill-rule:evenodd;stroke:#000000;stroke-width:0.8pt;marker-start:none"
         d="M 295.34086,159.86306 L 290.12372,157.67642 L 299.129,169.11779 L 297.5275,154.64591 L 295.34086,159.86306 z"
         id="path2628" />
    </g>
    <g
       id="g2630">
      <path
         style="fill:#000000;fill-opacity:1;fill-rule:evenodd;stroke:none;stroke-width:2;stroke-linecap:butt;stroke-linejoin:miter;stroke-miterlimit:4;stroke-dasharray:none;stroke-opacity:1"
         d="M 239.28125,164.34375 L 237.875,165.75 L 263.15625,191.6875 L 280,208.96875 L 281.4375,207.5625 L 264.59375,190.3125 L 239.28125,164.34375 z"
         id="path14575" />
      <path
         style="fill-rule:evenodd;stroke:#000000;stroke-width:0.8pt;marker-start:none"
         d="M 258.29669,185.26688 L 252.64029,185.19462 L 265.27685,192.42769 L 258.36894,179.61049 L 258.29669,185.26688 z"
         id="path2636" />
    </g>
    <g
       id="g2638">
      <path
         style="fill:#000000;fill-opacity:1;fill-rule:evenodd;stroke:none;stroke-width:2;stroke-linecap:butt;stroke-linejoin:miter;stroke-miterlimit:4;stroke-dasharray:none;stroke-opacity:1"
         d="M 207.46875,209.90625 L 206.65625,211.71875 L 239.78125,226.46875 L 261.8125,236.25 L 262.625,234.4375 L 240.59375,224.625 L 207.46875,209.90625 z"
         id="path14577" />
      <path
         style="fill-rule:evenodd;stroke:#000000;stroke-width:0.8pt;marker-start:none"
         d="M 232.88094,222.29224 L 227.60004,224.32007 L 242.01685,226.35858 L 230.85311,217.01134 L 232.88094,222.29224 z"
         id="path2644" />
    </g>
    <g
       id="g2518">
      <path
         style="fill:#000000;fill-opacity:1;fill-rule:evenodd;stroke:none;stroke-width:2;stroke-linecap:butt;stroke-linejoin:miter;stroke-miterlimit:4;stroke-dasharray:none;stroke-opacity:1"
         d="M 195.21875,267.71875 L 195.21875,269.71875 L 231.46875,269.71875 L 255.5625,269.71875 L 255.5625,267.71875 L 231.46875,267.71875 L 195.21875,267.71875 z"
         id="path14579" />
      <path
         style="fill-rule:evenodd;stroke:#000000;stroke-width:0.8pt;marker-start:none"
         d="M 223.45395,268.70409 L 219.45395,272.70409 L 233.45395,268.70409 L 219.45395,264.70409 L 223.45395,268.70409 z"
         id="path2524" />
    </g>
    <g
       id="g2526">
      <path
         style="fill:#000000;fill-opacity:1;fill-rule:evenodd;stroke:none;stroke-width:2;stroke-linecap:butt;stroke-linejoin:miter;stroke-miterlimit:4;stroke-dasharray:none;stroke-opacity:1"
         d="M 262.15625,300.5625 L 239.84375,309.71875 L 206.3125,323.4375 L 207.0625,325.28125 L 240.59375,311.5625 L 262.90625,302.40625 L 262.15625,300.5625 z"
         id="path14581" />
      <path
         style="fill-rule:evenodd;stroke:#000000;stroke-width:0.8pt;marker-start:none"
         d="M 232.82326,313.6615 L 230.63784,318.87916 L 242.07711,309.87121 L 227.60561,311.47608 L 232.82326,313.6615 z"
         id="path2532" />
    </g>
    <g
       id="g2534">
      <path
         style="fill:#000000;fill-opacity:1;fill-rule:evenodd;stroke:none;stroke-width:2;stroke-linecap:butt;stroke-linejoin:miter;stroke-miterlimit:4;stroke-dasharray:none;stroke-opacity:1"
         d="M 281.3125,328.3125 L 264.40625,345.53125 L 239.03125,371.40625 L 240.4375,372.8125 L 265.84375,346.9375 L 282.71875,329.71875 L 281.3125,328.3125 z"
         id="path14583" />
      <path
         style="fill-rule:evenodd;stroke:#000000;stroke-width:0.8pt;marker-start:none"
         d="M 259.52102,351.9351 L 259.57394,357.59171 L 266.52562,344.79819 L 253.86441,351.98802 L 259.52102,351.9351 z"
         id="path2540" />
    </g>
    <g
       id="g2542">
      <path
         style="fill:#000000;fill-opacity:1;fill-rule:evenodd;stroke:none;stroke-width:2;stroke-linecap:butt;stroke-linejoin:miter;stroke-miterlimit:4;stroke-dasharray:none;stroke-opacity:1"
         d="M 309.3125,346.65625 L 300.34375,369.0625 L 286.84375,402.6875 L 288.71875,403.4375 L 302.1875,369.78125 L 311.15625,347.40625 L 309.3125,346.65625 z"
         id="path14585" />
      <path
         style="fill-rule:evenodd;stroke:#000000;stroke-width:0.8pt;marker-start:none"
         d="M 298.28786,376.84512 L 300.51318,382.04588 L 302.00716,367.56251 L 293.0871,379.07044 L 298.28786,376.84512 z"
         id="path2548" />
    </g>
    <g
       id="g2550">
      <path
         style="fill:#000000;fill-opacity:1;fill-rule:evenodd;stroke:none;stroke-width:2;stroke-linecap:butt;stroke-linejoin:miter;stroke-miterlimit:4;stroke-dasharray:none;stroke-opacity:1"
         d="M 341.1875,352.4375 L 341.1875,388.6875 L 341.1875,412.8125 L 343.1875,412.8125 L 343.1875,388.6875 L 343.1875,352.4375 L 341.1875,352.4375 z"
         id="path14587" />
      <path
         style="fill-rule:evenodd;stroke:#000000;stroke-width:0.8pt;marker-start:none"
         d="M 342.18917,380.70248 L 338.18917,376.70248 L 342.18917,390.70248 L 346.18917,376.70248 L 342.18917,380.70248 z"
         id="path2556" />
    </g>
    <g
       id="g2558">
      <path
         style="fill:#000000;fill-opacity:1;fill-rule:evenodd;stroke:none;stroke-width:2;stroke-linecap:butt;stroke-linejoin:miter;stroke-miterlimit:4;stroke-dasharray:none;stroke-opacity:1"
         d="M 374.5625,345.25 L 372.71875,346 L 386.5,379.53125 L 395.6875,401.84375 L 397.53125,401.0625 L 388.34375,378.78125 L 374.5625,345.25 z"
         id="path14595" />
      <path
         style="fill-rule:evenodd;stroke:#000000;stroke-width:0.8pt;marker-start:none"
         d="M 384.38675,371.7562 L 379.16554,369.57929 L 388.19214,381.00385 L 386.56366,366.53499 L 384.38675,371.7562 z"
         id="path2564" />
    </g>
    <g
       id="g2566">
      <path
         style="fill:#000000;fill-opacity:1;fill-rule:evenodd;stroke:none;stroke-width:2;stroke-linecap:butt;stroke-linejoin:miter;stroke-miterlimit:4;stroke-dasharray:none;stroke-opacity:1"
         d="M 401.65625,326.78125 L 400.1875,328.125 L 424.875,354.6875 L 441.3125,372.34375 L 442.78125,370.96875 L 426.34375,353.3125 L 401.65625,326.78125 z"
         id="path14597" />
      <path
         style="fill-rule:evenodd;stroke:#000000;stroke-width:0.8pt;marker-start:none"
         d="M 420.17279,348.1363 L 414.51966,347.93119 L 426.98283,355.4591 L 420.3779,342.48316 L 420.17279,348.1363 z"
         id="path2572" />
    </g>
    <g
       id="g2574">
      <path
         style="fill:#000000;fill-opacity:1;fill-rule:evenodd;stroke:none;stroke-width:2;stroke-linecap:butt;stroke-linejoin:miter;stroke-miterlimit:4;stroke-dasharray:none;stroke-opacity:1"
         d="M 418.59375,299.4375 L 417.78125,301.25 L 450.875,316.0625 L 472.875,325.9375 L 473.6875,324.09375 L 451.6875,314.25 L 418.59375,299.4375 z"
         id="path14599" />
      <path
         style="fill-rule:evenodd;stroke:#000000;stroke-width:0.8pt;marker-start:none"
         d="M 443.96972,311.88966 L 438.68412,313.90519 L 453.09614,315.97725 L 441.95419,306.60405 L 443.96972,311.88966 z"
         id="path2580" />
    </g>
    <g
       id="g2582">
      <path
         style="fill:#000000;fill-opacity:1;fill-rule:evenodd;stroke:none;stroke-width:2;stroke-linecap:butt;stroke-linejoin:miter;stroke-miterlimit:4;stroke-dasharray:none;stroke-opacity:1"
         d="M 424.65625,267.46875 L 424.65625,269.46875 L 460.90625,269.46875 L 485,269.46875 L 485,267.46875 L 460.90625,267.46875 L 424.65625,267.46875 z"
         id="path14601" />
      <path
         style="fill-rule:evenodd;stroke:#000000;stroke-width:0.8pt;marker-start:none"
         d="M 452.89262,268.48381 L 448.89262,272.48381 L 462.89262,268.48381 L 448.89262,264.48381 L 452.89262,268.48381 z"
         id="path2588" />
    </g>
    <g
       id="g2590">
      <path
         style="fill:#000000;fill-opacity:1;fill-rule:evenodd;stroke:none;stroke-width:2;stroke-linecap:butt;stroke-linejoin:miter;stroke-miterlimit:4;stroke-dasharray:none;stroke-opacity:1"
         d="M 474.625,213.71875 L 452.0625,222.21875 L 418.15625,235.03125 L 418.875,236.90625 L 452.78125,224.09375 L 475.3125,215.5625 L 474.625,213.71875 z"
         id="path14603" />
      <path
         style="fill-rule:evenodd;stroke:#000000;stroke-width:0.8pt;marker-start:none"
         d="M 444.9357,225.98099 L 442.60639,231.13602 L 454.29112,222.44884 L 439.78067,223.65168 L 444.9357,225.98099 z"
         id="path2596" />
    </g>
    <g
       id="g2598">
      <path
         style="fill:#000000;fill-opacity:1;fill-rule:evenodd;stroke:none;stroke-width:2;stroke-linecap:butt;stroke-linejoin:miter;stroke-miterlimit:4;stroke-dasharray:none;stroke-opacity:1"
         d="M 443.3125,165.8125 L 426.125,182.6875 L 400.28125,208.125 L 401.6875,209.53125 L 427.53125,184.125 L 444.71875,167.21875 L 443.3125,165.8125 z"
         id="path14605" />
      <path
         style="fill-rule:evenodd;stroke:#000000;stroke-width:0.8pt;marker-start:none"
         d="M 421.12119,189.02381 L 421.07369,194.68046 L 428.25138,182.01236 L 415.46453,188.97631 L 421.12119,189.02381 z"
         id="path2604" />
    </g>
    <g
       id="g2606">
      <path
         style="fill:#000000;fill-opacity:1;fill-rule:evenodd;stroke:none;stroke-width:2;stroke-linecap:butt;stroke-linejoin:miter;stroke-miterlimit:4;stroke-dasharray:none;stroke-opacity:1"
         d="M 395.1875,133.5625 L 385.59375,155.6875 L 371.1875,188.9375 L 373.03125,189.75 L 387.4375,156.5 L 397.03125,134.375 L 395.1875,133.5625 z"
         id="path14607" />
      <path
         style="fill-rule:evenodd;stroke:#000000;stroke-width:0.8pt;marker-start:none"
         d="M 383.3433,163.42957 L 385.42195,168.69068 L 387.32137,154.25488 L 378.0822,165.50822 L 383.3433,163.42957 z"
         id="path2612" />
    </g>
    <path
       style="fill:none;fill-opacity:1;stroke:#000000;stroke-width:2;stroke-miterlimit:4;stroke-opacity:1"
       d="M 307.91679,190.19243 C 311.19248,200.0577 300.0018,205.99373 293.07964,197.89401"
       id="path14611"
       sodipodi:nodetypes="cc" />
    <path
       style="fill:none;fill-opacity:1;stroke:#000000;stroke-width:2;stroke-miterlimit:4;stroke-opacity:1"
       d="M 281.041,208.5416 C 287.96575,216.29411 280.05358,226.1868 270.48364,221.50299"
       id="path14614"
       sodipodi:nodetypes="cc" />
    <path
       style="fill:none;fill-opacity:1;stroke:#000000;stroke-width:2;stroke-miterlimit:4;stroke-opacity:1"
       d="M 262.91883,235.63114 C 272.2605,240.19042 268.67544,252.3401 258.04502,251.6218"
       id="path14616"
       sodipodi:nodetypes="cc" />
    <path
       style="fill:none;fill-opacity:1;stroke:#000000;stroke-width:2;stroke-miterlimit:4;stroke-opacity:1"
       d="M 255.76865,268.52734 C 266.15985,268.80433 267.93339,281.34715 257.96147,285.09982"
       id="path14618"
       sodipodi:nodetypes="cc" />
    <path
       style="fill:none;fill-opacity:1;stroke:#000000;stroke-width:2;stroke-miterlimit:4;stroke-opacity:1"
       d="M 262.79796,301.12 C 272.56476,297.56144 278.82074,308.57645 270.92382,315.7291"
       id="path14620"
       sodipodi:nodetypes="cc" />
    <path
       style="fill:none;fill-opacity:1;stroke:#000000;stroke-width:2;stroke-miterlimit:4;stroke-opacity:1"
       d="M 282.1685,328.87013 C 290.32916,322.4314 299.72055,330.93254 294.46145,340.1988"
       id="path14622"
       sodipodi:nodetypes="cc" />
    <path
       style="fill:none;fill-opacity:1;stroke:#000000;stroke-width:2;stroke-miterlimit:4;stroke-opacity:1"
       d="M 310.58561,346.98558 C 314.89963,337.52816 327.13872,340.79504 326.69797,351.44058"
       id="path14624"
       sodipodi:nodetypes="cc" />
    <path
       style="fill:none;fill-opacity:1;stroke:#000000;stroke-width:2;stroke-miterlimit:4;stroke-opacity:1"
       d="M 341.99075,353.07119 C 341.7504,342.67908 354.18945,340.28368 358.4336,350.05656"
       id="path14626"
       sodipodi:nodetypes="cc" />
    <path
       style="fill:none;fill-opacity:1;stroke:#000000;stroke-width:2;stroke-miterlimit:4;stroke-opacity:1"
       d="M 373.61264,345.41378 C 369.9991,335.6672 380.97868,329.34924 388.17571,337.20573"
       id="path14628"
       sodipodi:nodetypes="cc" />
    <path
       style="fill:none;fill-opacity:1;stroke:#000000;stroke-width:2;stroke-miterlimit:4;stroke-opacity:1"
       d="M 400.55166,327.00912 C 393.13031,319.73058 400.37225,309.33722 410.23047,313.37916"
       id="path14630"
       sodipodi:nodetypes="cc" />
    <path
       style="fill:none;fill-opacity:1;stroke:#000000;stroke-width:2;stroke-miterlimit:4;stroke-opacity:1"
       d="M 417.57194,300.17219 C 408.28964,295.49323 412.03055,283.39061 422.65086,284.24549"
       id="path14632"
       sodipodi:nodetypes="cc" />
    <path
       style="fill:none;fill-opacity:1;stroke:#000000;stroke-width:2;stroke-miterlimit:4;stroke-opacity:1"
       d="M 424.74433,268.56044 C 414.35315,268.28253 412.58073,255.73955 422.55299,251.98778"
       id="path14634"
       sodipodi:nodetypes="cc" />
    <path
       style="fill:none;fill-opacity:1;stroke:#000000;stroke-width:2;stroke-miterlimit:4;stroke-opacity:1"
       d="M 418.06327,236.29247 C 408.31833,239.91047 401.99535,228.93378 409.84856,221.73315"
       id="path14636"
       sodipodi:nodetypes="cc" />
    <path
       style="fill:none;fill-opacity:1;stroke:#000000;stroke-width:2;stroke-miterlimit:4;stroke-opacity:1"
       d="M 400.54238,209.46535 C 392.45629,215.99751 382.96776,207.60492 388.11997,198.27879"
       id="path14638"
       sodipodi:nodetypes="cc" />
    <path
       style="fill:none;fill-opacity:1;stroke:#000000;stroke-width:2;stroke-miterlimit:4;stroke-opacity:1"
       d="M 371.62167,190.17427 C 367.08491,199.52689 354.92661,195.97111 355.61932,185.33899"
       id="path14640"
       sodipodi:nodetypes="cc" />
    <path
       style="fill:none;fill-opacity:1;stroke:#000000;stroke-width:2;stroke-miterlimit:4;stroke-opacity:1"
       d="M 342.05235,183.53516 C 341.64215,193.92195 329.07762,195.53453 325.45313,185.5153"
       id="path14642"
       sodipodi:nodetypes="cc" />
    <path
       style="fill:none;fill-opacity:1;stroke:#000000;stroke-width:2;stroke-miterlimit:4;stroke-opacity:1"
       d="M 342.08496,122.73231 C 344.56546,112.63772 357.19854,113.57218 358.74466,124.11407"
       id="path14644"
       sodipodi:nodetypes="cc" />
    <path
       style="fill:none;fill-opacity:1;stroke:#000000;stroke-width:2;stroke-miterlimit:4;stroke-opacity:1"
       d="M 284.97711,134.24336 C 283.13564,124.01288 295.05591,119.72627 300.75761,128.72697"
       id="path14646"
       sodipodi:nodetypes="cc" />
    <path
       style="fill:none;fill-opacity:1;stroke:#000000;stroke-width:2;stroke-miterlimit:4;stroke-opacity:1"
       d="M 237.8302,164.59876 C 232.33303,155.77636 241.82023,147.38226 250.44834,153.63348"
       id="path14648"
       sodipodi:nodetypes="cc" />
    <path
       style="fill:none;fill-opacity:1;stroke:#000000;stroke-width:2;stroke-miterlimit:4;stroke-opacity:1"
       d="M 206.7752,210.43328 C 198.38927,204.29083 204.07051,192.96866 214.40542,195.55932"
       id="path14650"
       sodipodi:nodetypes="cc" />
    <path
       style="fill:none;fill-opacity:1;stroke:#000000;stroke-width:2;stroke-miterlimit:4;stroke-opacity:1"
       d="M 195.22265,268.80672 C 185.06108,266.61674 185.63285,253.96205 196.12606,252.11424"
       id="path14652"
       sodipodi:nodetypes="cc" />
    <path
       style="fill:none;fill-opacity:1;stroke:#000000;stroke-width:2;stroke-miterlimit:4;stroke-opacity:1"
       d="M 206.04918,324.47038 C 195.8114,326.27078 191.57264,314.33341 200.59614,308.66787"
       id="path14654"
       sodipodi:nodetypes="cc" />
    <path
       style="fill:none;fill-opacity:1;stroke:#000000;stroke-width:2;stroke-miterlimit:4;stroke-opacity:1"
       d="M 239.13696,372.4408 C 230.4744,378.18655 221.81399,368.94181 227.8174,360.13948"
       id="path14656"
       sodipodi:nodetypes="cc" />
    <path
       style="fill:none;fill-opacity:1;stroke:#000000;stroke-width:2;stroke-miterlimit:4;stroke-opacity:1"
       d="M 287.76825,403.31726 C 281.80197,411.82944 270.36382,406.3855 272.73843,395.99882"
       id="path14658"
       sodipodi:nodetypes="cc" />
    <path
       style="fill:none;fill-opacity:1;stroke:#000000;stroke-width:2;stroke-miterlimit:4;stroke-opacity:1"
       d="M 342.02657,413.18426 C 339.96888,423.37345 327.30784,422.96623 325.32376,412.49793"
       id="path14660"
       sodipodi:nodetypes="cc" />
    <path
       style="fill:none;fill-opacity:1;stroke:#000000;stroke-width:2;stroke-miterlimit:4;stroke-opacity:1"
       d="M 396.72122,401.55728 C 398.77732,411.74679 386.94979,416.28303 381.06015,407.40418"
       id="path14662"
       sodipodi:nodetypes="cc" />
    <path
       style="fill:none;fill-opacity:1;stroke:#000000;stroke-width:2;stroke-miterlimit:4;stroke-opacity:1"
       d="M 441.91975,371.21316 C 447.55511,379.94794 438.20123,388.49035 429.47578,382.37574"
       id="path14664"
       sodipodi:nodetypes="cc" />
    <path
       style="fill:none;fill-opacity:1;stroke:#000000;stroke-width:2;stroke-miterlimit:4;stroke-opacity:1"
       d="M 473.22764,324.83811 C 481.62643,330.96296 475.96894,342.29703 465.62863,339.72806"
       id="path14666"
       sodipodi:nodetypes="cc" />
    <path
       style="fill:none;fill-opacity:1;stroke:#000000;stroke-width:2;stroke-miterlimit:4;stroke-opacity:1"
       d="M 484.71593,268.39168 C 494.88095,270.56558 494.32919,283.22117 483.83893,285.08558"
       id="path14668"
       sodipodi:nodetypes="cc" />
    <path
       style="fill:none;fill-opacity:1;stroke:#000000;stroke-width:2;stroke-miterlimit:4;stroke-opacity:1"
       d="M 475.46152,214.48772 C 485.72239,212.82399 489.80161,224.81683 480.70339,230.36155"
       id="path14670"
       sodipodi:nodetypes="cc" />
    <path
       style="fill:none;fill-opacity:1;stroke:#000000;stroke-width:2;stroke-miterlimit:4;stroke-opacity:1"
       d="M 444.11707,166.45464 C 453.20703,161.41222 461.10895,171.31313 454.428,179.61292"
       id="path14672"
       sodipodi:nodetypes="cc" />
    <path
       style="fill:none;fill-opacity:1;stroke:#000000;stroke-width:2;stroke-miterlimit:4;stroke-opacity:1"
       d="M 395.74955,134.30421 C 401.56117,125.68571 413.09576,130.92226 410.90907,141.3501"
       id="path14674"
       sodipodi:nodetypes="cc" />
    <g
       id="g15837"
       transform="translate(25.223214,34.910714)">
      <path
         style="fill-rule:evenodd;stroke:#000000;stroke-width:0.4pt;marker-start:none"
         d="M 141.14286,143.25504 L 143.14286,141.25504 L 136.14286,143.25504 L 143.14286,145.25504 L 141.14286,143.25504 z"
         id="path15843" />
    </g>
    <g
       id="g15845"
       transform="translate(16.785712,54.464284)">
      <path
         style="fill-rule:evenodd;stroke:#000000;stroke-width:0.4pt;marker-start:none"
         d="M 141.14286,143.25504 L 143.14286,141.25504 L 136.14286,143.25504 L 143.14286,145.25504 L 141.14286,143.25504 z"
         id="path15847" />
    </g>
    <g
       id="g15849"
       transform="translate(10.892855,73.660712)">
      <path
         style="fill-rule:evenodd;stroke:#000000;stroke-width:0.4pt;marker-start:none"
         d="M 141.14286,143.25504 L 143.14286,141.25504 L 136.14286,143.25504 L 143.14286,145.25504 L 141.14286,143.25504 z"
         id="path15851" />
    </g>
    <g
       id="g15853"
       transform="translate(6.9642832,91.964284)">
      <path
         style="fill-rule:evenodd;stroke:#000000;stroke-width:0.4pt;marker-start:none"
         d="M 141.14286,143.25504 L 143.14286,141.25504 L 136.14286,143.25504 L 143.14286,145.25504 L 141.14286,143.25504 z"
         id="path15855" />
    </g>
    <g
       id="g15857"
       transform="translate(4.9999975,108.03571)">
      <path
         style="fill-rule:evenodd;stroke:#000000;stroke-width:0.4pt;marker-start:none"
         d="M 141.14286,143.25504 L 143.14286,141.25504 L 136.14286,143.25504 L 143.14286,145.25504 L 141.14286,143.25504 z"
         id="path15859" />
    </g>
    <g
       id="g15861"
       transform="translate(3.9285689,125.26786)">
      <path
         style="fill-rule:evenodd;stroke:#000000;stroke-width:0.4pt;marker-start:none"
         d="M 141.14286,143.25504 L 143.14286,141.25504 L 136.14286,143.25504 L 143.14286,145.25504 L 141.14286,143.25504 z"
         id="path15863" />
    </g>
    <g
       id="g15865"
       transform="translate(4.821426,142.67857)">
      <path
         style="fill-rule:evenodd;stroke:#000000;stroke-width:0.4pt;marker-start:none"
         d="M 141.14286,143.25504 L 143.14286,141.25504 L 136.14286,143.25504 L 143.14286,145.25504 L 141.14286,143.25504 z"
         id="path15867" />
    </g>
    <g
       id="g15869"
       transform="translate(7.0535689,158.75)">
      <path
         style="fill-rule:evenodd;stroke:#000000;stroke-width:0.4pt;marker-start:none"
         d="M 141.14286,143.25504 L 143.14286,141.25504 L 136.14286,143.25504 L 143.14286,145.25504 L 141.14286,143.25504 z"
         id="path15871" />
    </g>
    <g
       id="g15873"
       transform="translate(11.071426,176.96429)">
      <path
         style="fill-rule:evenodd;stroke:#000000;stroke-width:0.4pt;marker-start:none"
         d="M 141.14286,143.25504 L 143.14286,141.25504 L 136.14286,143.25504 L 143.14286,145.25504 L 141.14286,143.25504 z"
         id="path15875" />
    </g>
    <g
       id="g15877"
       transform="translate(17.499997,196.25)">
      <path
         style="fill-rule:evenodd;stroke:#000000;stroke-width:0.4pt;marker-start:none"
         d="M 141.14286,143.25504 L 143.14286,141.25504 L 136.14286,143.25504 L 143.14286,145.25504 L 141.14286,143.25504 z"
         id="path15879" />
    </g>
    <g
       id="g15881"
       transform="translate(25.624998,215.80357)">
      <path
         style="fill-rule:evenodd;stroke:#000000;stroke-width:0.4pt;marker-start:none"
         d="M 141.14286,143.25504 L 143.14286,141.25504 L 136.14286,143.25504 L 143.14286,145.25504 L 141.14286,143.25504 z"
         id="path15883" />
    </g>
    <path
       style="fill:none;fill-rule:evenodd;stroke:#000000;stroke-width:1px;stroke-linecap:butt;stroke-linejoin:miter;stroke-opacity:1"
       d="M 86.241774,362.17545 L 162.63456,362.17545 C 131.10643,299.74695 131.87188,237.23117 162.63456,174.63432 L 84.789679,174.63432"
       id="path15885"
       sodipodi:nodetypes="cccc" />
    <path
       style="fill:none;fill-rule:evenodd;stroke:#000000;stroke-width:1px;stroke-linecap:butt;stroke-linejoin:miter;stroke-opacity:1"
       d="M 596.75605,364.70418 L 520.36327,364.70418 C 551.8914,302.27568 551.12595,239.7599 520.36327,177.16305 L 598.20815,177.16305"
       id="path15887"
       sodipodi:nodetypes="cccc" />
    <g
       id="g16997">
      <path
         sodipodi:nodetypes="ccccc"
         id="path15889"
         d="M 356.20264,117.50956 C 351.68829,114.76488 348.36079,115.58077 345.25924,117.0745 L 310.62191,65.569413 L 317.81925,60.64492 L 356.20264,117.50956 z"
         style="fill:none;fill-rule:evenodd;stroke:#000000;stroke-width:1px;stroke-linecap:butt;stroke-linejoin:miter;stroke-opacity:1" />
      <g
         id="g2646">
        <path
           style="fill:#000000;fill-opacity:1;fill-rule:evenodd;stroke:none;stroke-width:1px;stroke-linecap:butt;stroke-linejoin:miter;stroke-opacity:1"
           d="M 264.75,43.53125 C 263.96931,43.596558 263.16922,43.747447 262.375,44 C 260.61392,44.560006 258.91636,46.463407 257.1875,48.34375 C 255.45864,50.224093 253.70775,52.088451 252.375,52.59375 C 250.96689,53.12762 248.76021,53.17611 246.9375,53.0625 C 245.11479,52.94889 243.65625,52.6875 243.65625,52.6875 L 243.5,53.6875 C 243.5,53.6875 244.99104,53.945072 246.875,54.0625 C 248.75896,54.179928 251.02328,54.174071 252.71875,53.53125 C 254.48958,52.859859 256.21056,50.909506 257.9375,49.03125 C 259.66444,47.152994 261.39363,45.370249 262.65625,44.96875 C 265.52677,44.055952 268.56263,44.640195 270.21875,45.65625 C 270.36812,45.747893 270.47674,45.95025 270.625,46.0625 C 270.07298,46.409619 269.59871,46.562672 269.0625,47 C 268.4151,47.528016 267.82748,48.100067 267.375,48.6875 C 266.92252,49.274933 266.5807,49.882638 266.5625,50.53125 C 266.53115,51.648297 267.07788,52.589269 267.8125,53.25 C 268.54712,53.910731 269.47034,54.312501 270.34375,54.3125 C 271.26213,54.312499 272.15741,53.806852 272.875,53.09375 C 273.31273,52.658758 273.6217,52.119274 273.875,51.5625 C 273.96375,51.978042 274.09974,52.398235 274.28125,52.78125 C 274.74487,53.759552 275.433,54.605609 276.34375,54.9375 C 277.23671,55.262913 278.32992,55.110459 279.3125,54.6875 C 280.29508,54.264541 281.21685,53.533978 281.5625,52.46875 C 281.62914,52.263387 281.52075,52.029072 281.53125,51.8125 C 281.69976,51.921856 281.85641,52.090928 282.03125,52.15625 C 282.31565,52.262507 282.58633,52.090932 282.875,52.09375 C 282.81098,53.232131 283.36502,54.343673 284.125,55.1875 C 284.90687,56.055634 285.88132,56.697212 286.875,56.71875 C 287.82944,56.739437 288.70049,56.222246 289.34375,55.5 C 289.98701,54.777754 290.41879,53.838088 290.53125,52.875 C 290.65351,51.828075 290.22255,50.580823 289.5625,49.40625 C 289.29899,48.93732 288.9548,48.507435 288.625,48.09375 C 288.84096,48.012964 289.08338,47.804529 289.28125,47.75 C 291.29314,47.195581 294.96004,48.235326 297.1875,49 C 299.39247,49.756948 301.13448,50.660654 303.625,52.59375 C 304.79979,53.505607 307.20255,56.006241 309.25,58.25 C 311.29745,60.493759 313.03125,62.5 313.03125,62.5 L 313.78125,61.84375 C 313.78125,61.84375 312.02622,59.81724 309.96875,57.5625 C 307.91128,55.30776 305.59589,52.825911 304.25,51.78125 C 301.69914,49.801312 299.81577,48.846757 297.53125,48.0625 C 295.26925,47.285966 291.60004,46.073366 289.03125,46.78125 C 288.6843,46.876859 288.30795,47.189899 287.9375,47.34375 C 287.63362,47.056464 287.33297,46.752592 287,46.5625 C 286.53645,46.297867 285.80845,46.281784 285.1875,46.125 C 285.05014,45.946871 284.96132,45.72814 284.78125,45.59375 C 284.09031,45.078106 283.21268,45.078516 282.375,45.21875 C 281.53732,45.358984 280.68807,45.653258 279.90625,45.90625 C 279.59872,46.005766 279.05114,46.254027 278.625,46.40625 C 278.34646,46.13141 278.07087,45.646786 277.8125,45.46875 C 276.24839,44.39096 274.7336,44.17442 272.84375,44.75 C 272.46925,44.864059 271.9288,45.319795 271.46875,45.5625 C 271.19871,45.336027 271.00671,44.989169 270.71875,44.8125 C 269.25263,43.913015 267.09207,43.335327 264.75,43.53125 z M 275.3125,45.4375 C 275.95462,45.524595 276.55781,45.804278 277.25,46.28125 C 277.36214,46.358524 277.55267,46.660783 277.6875,46.78125 C 277.29138,46.942284 276.98856,46.990557 276.59375,47.1875 C 275.51457,47.72583 274.57633,48.408138 274.125,49.34375 C 273.97332,48.672985 273.70176,48.022951 273.28125,47.375 C 273.00097,46.943123 272.54481,46.664325 272.1875,46.28125 C 272.48244,46.13685 272.91532,45.78261 273.125,45.71875 C 273.98064,45.458153 274.67038,45.350405 275.3125,45.4375 z M 283.09375,46.625 C 283.60222,46.636736 283.96674,46.838179 284.46875,46.9375 C 284.69711,47.284779 284.93411,47.598934 285.03125,48.125 C 285.09058,48.446338 285.00854,48.637695 285,48.9375 C 284.17394,49.595264 283.57343,50.339259 283.21875,51.15625 C 282.93222,51.201907 282.6349,51.315851 282.375,51.21875 C 282.09627,51.114613 281.6118,50.536648 281.1875,50 C 280.98245,49.518846 280.78774,49.033462 280.5,48.5625 C 280.45221,48.484278 280.39302,48.452231 280.34375,48.375 C 280.28901,48.000455 280.34259,47.659922 280.5,47.40625 C 280.64136,47.178444 280.94266,46.950767 281.40625,46.8125 C 281.86984,46.674233 282.46234,46.610427 283.09375,46.625 z M 271.34375,46.78125 C 271.72273,47.164191 272.1502,47.46356 272.4375,47.90625 C 273.01611,48.79782 273.31891,49.751795 273.25,50.375 C 273.1776,51.029762 272.74325,51.791669 272.15625,52.375 C 271.56925,52.958331 270.84501,53.3125 270.34375,53.3125 C 269.79753,53.312501 269.03398,53.039635 268.46875,52.53125 C 267.90352,52.022865 267.54082,51.334982 267.5625,50.5625 C 267.57081,50.266349 267.77235,49.810894 268.15625,49.3125 C 268.54015,48.814106 269.08294,48.27432 269.6875,47.78125 C 270.27104,47.305319 270.74577,47.136845 271.34375,46.78125 z M 279.59375,47.09375 C 279.54119,47.203313 279.56392,47.324007 279.53125,47.4375 C 279.45742,47.343437 279.38716,47.277401 279.3125,47.1875 C 279.40051,47.157099 279.51076,47.12169 279.59375,47.09375 z M 285.8125,47.28125 C 286.0099,47.358925 286.34903,47.35131 286.5,47.4375 C 286.6333,47.513599 286.76781,47.765365 286.90625,47.875 C 286.59612,48.040966 286.3001,48.149872 286,48.34375 C 285.98342,48.209117 286.05614,48.103533 286.03125,47.96875 C 285.98783,47.733613 285.88299,47.509036 285.8125,47.28125 z M 278.375,47.5625 C 278.77492,48.011309 279.1355,48.311058 279.5,48.875 C 279.60681,49.276285 279.70306,49.670548 279.90625,50.03125 C 280.04973,50.285955 280.23679,50.491709 280.40625,50.71875 C 280.60432,51.318119 280.69322,51.849712 280.59375,52.15625 C 280.36656,52.856429 279.72628,53.441713 278.9375,53.78125 C 278.14872,54.120787 277.22763,54.196832 276.6875,54 C 276.16515,53.809648 275.56923,53.149258 275.1875,52.34375 C 274.80577,51.538242 274.6675,50.608661 274.875,49.9375 C 275.05023,49.370696 275.94839,48.649502 277.0625,48.09375 C 277.52718,47.861955 277.90269,47.746053 278.375,47.5625 z M 287.5625,48.625 C 287.95505,49.062663 288.37972,49.358545 288.6875,49.90625 C 289.28291,50.965805 289.60591,52.110643 289.53125,52.75 C 289.4468,53.473193 289.10055,54.274717 288.59375,54.84375 C 288.08695,55.412783 287.4681,55.730928 286.90625,55.71875 C 286.38363,55.707423 285.49359,55.252792 284.84375,54.53125 C 284.19391,53.809708 283.77564,52.862521 283.84375,52.09375 C 283.84537,52.075434 283.87244,52.049955 283.875,52.03125 C 283.99461,51.990019 284.13678,52.053827 284.25,52 C 284.9193,51.681811 285.48409,51.167299 285.8125,50.53125 C 285.959,50.24751 285.86287,49.842588 285.90625,49.5 C 286.43188,49.111012 286.98435,48.918075 287.5625,48.625 z"
           id="path15893" />
        <path
           style="fill-rule:evenodd;stroke:#000000;stroke-width:0.4pt;marker-start:none"
           d="M 310.78013,59.137376 L 307.95889,58.935842 L 314.05476,62.915841 L 310.98166,56.316138 L 310.78013,59.137376 z"
           id="path2652" />
      </g>
    </g>
    <g
       id="g17001"
       transform="matrix(-1,0,0,-1,684.69282,536.11918)">
      <path
         sodipodi:nodetypes="ccccc"
         id="path17003"
         d="M 356.20264,117.50956 C 351.68829,114.76488 348.36079,115.58077 345.25924,117.0745 L 310.62191,65.569413 L 317.81925,60.64492 L 356.20264,117.50956 z"
         style="fill:none;fill-rule:evenodd;stroke:#000000;stroke-width:1px;stroke-linecap:butt;stroke-linejoin:miter;stroke-opacity:1" />
      <g
         id="g2654">
        <path
           style="fill:#000000;fill-opacity:1;fill-rule:evenodd;stroke:none;stroke-width:1px;stroke-linecap:butt;stroke-linejoin:miter;stroke-opacity:1"
           d="M 264.75,43.53125 C 263.96931,43.596558 263.16922,43.747447 262.375,44 C 260.61392,44.560006 258.91636,46.463407 257.1875,48.34375 C 255.45864,50.224093 253.70775,52.088451 252.375,52.59375 C 250.96689,53.12762 248.76021,53.17611 246.9375,53.0625 C 245.11479,52.94889 243.65625,52.6875 243.65625,52.6875 L 243.5,53.6875 C 243.5,53.6875 244.99104,53.945072 246.875,54.0625 C 248.75896,54.179928 251.02328,54.174071 252.71875,53.53125 C 254.48958,52.859859 256.21056,50.909506 257.9375,49.03125 C 259.66444,47.152994 261.39363,45.370249 262.65625,44.96875 C 265.52677,44.055952 268.56263,44.640195 270.21875,45.65625 C 270.36812,45.747893 270.47674,45.95025 270.625,46.0625 C 270.07298,46.409619 269.59871,46.562672 269.0625,47 C 268.4151,47.528016 267.82748,48.100067 267.375,48.6875 C 266.92252,49.274933 266.5807,49.882638 266.5625,50.53125 C 266.53115,51.648297 267.07788,52.589269 267.8125,53.25 C 268.54712,53.910731 269.47034,54.312501 270.34375,54.3125 C 271.26213,54.312499 272.15741,53.806852 272.875,53.09375 C 273.31273,52.658758 273.6217,52.119274 273.875,51.5625 C 273.96375,51.978042 274.09974,52.398235 274.28125,52.78125 C 274.74487,53.759552 275.433,54.605609 276.34375,54.9375 C 277.23671,55.262913 278.32992,55.110459 279.3125,54.6875 C 280.29508,54.264541 281.21685,53.533978 281.5625,52.46875 C 281.62914,52.263387 281.52075,52.029072 281.53125,51.8125 C 281.69976,51.921856 281.85641,52.090928 282.03125,52.15625 C 282.31565,52.262507 282.58633,52.090932 282.875,52.09375 C 282.81098,53.232131 283.36502,54.343673 284.125,55.1875 C 284.90687,56.055634 285.88132,56.697212 286.875,56.71875 C 287.82944,56.739437 288.70049,56.222246 289.34375,55.5 C 289.98701,54.777754 290.41879,53.838088 290.53125,52.875 C 290.65351,51.828075 290.22255,50.580823 289.5625,49.40625 C 289.29899,48.93732 288.9548,48.507435 288.625,48.09375 C 288.84096,48.012964 289.08338,47.804529 289.28125,47.75 C 291.29314,47.195581 294.96004,48.235326 297.1875,49 C 299.39247,49.756948 301.13448,50.660654 303.625,52.59375 C 304.79979,53.505607 307.20255,56.006241 309.25,58.25 C 311.29745,60.493759 313.03125,62.5 313.03125,62.5 L 313.78125,61.84375 C 313.78125,61.84375 312.02622,59.81724 309.96875,57.5625 C 307.91128,55.30776 305.59589,52.825911 304.25,51.78125 C 301.69914,49.801312 299.81577,48.846757 297.53125,48.0625 C 295.26925,47.285966 291.60004,46.073366 289.03125,46.78125 C 288.6843,46.876859 288.30795,47.189899 287.9375,47.34375 C 287.63362,47.056464 287.33297,46.752592 287,46.5625 C 286.53645,46.297867 285.80845,46.281784 285.1875,46.125 C 285.05014,45.946871 284.96132,45.72814 284.78125,45.59375 C 284.09031,45.078106 283.21268,45.078516 282.375,45.21875 C 281.53732,45.358984 280.68807,45.653258 279.90625,45.90625 C 279.59872,46.005766 279.05114,46.254027 278.625,46.40625 C 278.34646,46.13141 278.07087,45.646786 277.8125,45.46875 C 276.24839,44.39096 274.7336,44.17442 272.84375,44.75 C 272.46925,44.864059 271.9288,45.319795 271.46875,45.5625 C 271.19871,45.336027 271.00671,44.989169 270.71875,44.8125 C 269.25263,43.913015 267.09207,43.335327 264.75,43.53125 z M 275.3125,45.4375 C 275.95462,45.524595 276.55781,45.804278 277.25,46.28125 C 277.36214,46.358524 277.55267,46.660783 277.6875,46.78125 C 277.29138,46.942284 276.98856,46.990557 276.59375,47.1875 C 275.51457,47.72583 274.57633,48.408138 274.125,49.34375 C 273.97332,48.672985 273.70176,48.022951 273.28125,47.375 C 273.00097,46.943123 272.54481,46.664325 272.1875,46.28125 C 272.48244,46.13685 272.91532,45.78261 273.125,45.71875 C 273.98064,45.458153 274.67038,45.350405 275.3125,45.4375 z M 283.09375,46.625 C 283.60222,46.636736 283.96674,46.838179 284.46875,46.9375 C 284.69711,47.284779 284.93411,47.598934 285.03125,48.125 C 285.09058,48.446338 285.00854,48.637695 285,48.9375 C 284.17394,49.595264 283.57343,50.339259 283.21875,51.15625 C 282.93222,51.201907 282.6349,51.315851 282.375,51.21875 C 282.09627,51.114613 281.6118,50.536648 281.1875,50 C 280.98245,49.518846 280.78774,49.033462 280.5,48.5625 C 280.45221,48.484278 280.39302,48.452231 280.34375,48.375 C 280.28901,48.000455 280.34259,47.659922 280.5,47.40625 C 280.64136,47.178444 280.94266,46.950767 281.40625,46.8125 C 281.86984,46.674233 282.46234,46.610427 283.09375,46.625 z M 271.34375,46.78125 C 271.72273,47.164191 272.1502,47.46356 272.4375,47.90625 C 273.01611,48.79782 273.31891,49.751795 273.25,50.375 C 273.1776,51.029762 272.74325,51.791669 272.15625,52.375 C 271.56925,52.958331 270.84501,53.3125 270.34375,53.3125 C 269.79753,53.312501 269.03398,53.039635 268.46875,52.53125 C 267.90352,52.022865 267.54082,51.334982 267.5625,50.5625 C 267.57081,50.266349 267.77235,49.810894 268.15625,49.3125 C 268.54015,48.814106 269.08294,48.27432 269.6875,47.78125 C 270.27104,47.305319 270.74577,47.136845 271.34375,46.78125 z M 279.59375,47.09375 C 279.54119,47.203313 279.56392,47.324007 279.53125,47.4375 C 279.45742,47.343437 279.38716,47.277401 279.3125,47.1875 C 279.40051,47.157099 279.51076,47.12169 279.59375,47.09375 z M 285.8125,47.28125 C 286.0099,47.358925 286.34903,47.35131 286.5,47.4375 C 286.6333,47.513599 286.76781,47.765365 286.90625,47.875 C 286.59612,48.040966 286.3001,48.149872 286,48.34375 C 285.98342,48.209117 286.05614,48.103533 286.03125,47.96875 C 285.98783,47.733613 285.88299,47.509036 285.8125,47.28125 z M 278.375,47.5625 C 278.77492,48.011309 279.1355,48.311058 279.5,48.875 C 279.60681,49.276285 279.70306,49.670548 279.90625,50.03125 C 280.04973,50.285955 280.23679,50.491709 280.40625,50.71875 C 280.60432,51.318119 280.69322,51.849712 280.59375,52.15625 C 280.36656,52.856429 279.72628,53.441713 278.9375,53.78125 C 278.14872,54.120787 277.22763,54.196832 276.6875,54 C 276.16515,53.809648 275.56923,53.149258 275.1875,52.34375 C 274.80577,51.538242 274.6675,50.608661 274.875,49.9375 C 275.05023,49.370696 275.94839,48.649502 277.0625,48.09375 C 277.52718,47.861955 277.90269,47.746053 278.375,47.5625 z M 287.5625,48.625 C 287.95505,49.062663 288.37972,49.358545 288.6875,49.90625 C 289.28291,50.965805 289.60591,52.110643 289.53125,52.75 C 289.4468,53.473193 289.10055,54.274717 288.59375,54.84375 C 288.08695,55.412783 287.4681,55.730928 286.90625,55.71875 C 286.38363,55.707423 285.49359,55.252792 284.84375,54.53125 C 284.19391,53.809708 283.77564,52.862521 283.84375,52.09375 C 283.84537,52.075434 283.87244,52.049955 283.875,52.03125 C 283.99461,51.990019 284.13678,52.053827 284.25,52 C 284.9193,51.681811 285.48409,51.167299 285.8125,50.53125 C 285.959,50.24751 285.86287,49.842588 285.90625,49.5 C 286.43188,49.111012 286.98435,48.918075 287.5625,48.625 z"
           id="path17005" />
        <path
           style="fill-rule:evenodd;stroke:#000000;stroke-width:0.4pt;marker-start:none"
           d="M 247.51031,53.900629 L 249.83174,52.284783 L 242.58871,53.018649 L 249.12615,56.22206 L 247.51031,53.900629 z"
           id="path2660" />
      </g>
    </g>
  </g>
</svg>
